# xmcd
#
# Track frame offsets:
#	150
#	22425
#	40037
#	87395
#	100352
#	111750
#	130460
#	158722
#	168330
#
# Disc length: 2450 seconds
#
# Revision: 1
# Processed by: cddbd v1.4PL0 Copyright (c) Steve Scherf et al.
# Submitted via: audiograbber 1.80.04
#
DISCID=75099009
DTITLE=Stefan Grossman and John Renbourn - Under The Volcano
DYEAR=1900
DGENRE=
TTITLE0=Idaho Potato
TTITLE1=Medley: Sheebeg and Sheemar/Drunken Wagoner
TTITLE2=Under The Volcano
TTITLE3=Medley: Bonaparte's Retreat/Billy In The Lowgrounds
TTITLE4=Swedish Jig
TTITLE5=Water Gypsy
TTITLE6=All Things Parallel Must Converge
TTITLE7=The Blarney Pilgrim
TTITLE8=Mississippi Blues No. 3
EXTD=
EXTT0=
EXTT1=
EXTT2=
EXTT3=
EXTT4=
EXTT5=
EXTT6=
EXTT7=
EXTT8=
PLAYORDER=
